<svg width="210" height="233" viewBox="0 0 210 233" fill="none" xmlns="http://www.w3.org/2000/svg">
<path d="M34.5 110.5L0 145V0.5H187C202.2 1.7 208.333 14.3333 209.5 20.5V69C195.833 85 168 117.5 166 119.5C164 121.5 157.167 120.333 154 119.5C149.6 116.7 142.5 118.333 139.5 119.5L91 180V185.5L96.5 183L132 142.5C137.2 139.3 136.833 142.833 136 145L98 187.5L96.5 193.5L102 191.5L141 150C146.2 147.2 145.833 151.167 145 153.5L107 195L105.5 201L111.5 199L150 159C154.8 156.6 154.667 160 154 162L113.5 202V206.5H118.5C135.5 191 170.4 158.7 174 153.5C178.5 147 176 143.5 174 137.5C172.4 132.7 173.333 128.167 174 126.5L209.5 90.5V232.5H19.5C6.3 229.7 1 218 0 212.5V162L43 115C63.4 120.6 84.8333 104.333 93 95.5C98.8333 89.3333 110.7 72.4 111.5 54C112.3 35.6 96.8333 33.6667 89 35C37.4 46.6 31.1667 90.1667 34.5 110.5Z" fill="#FF0000"/>
</svg>
