<svg width="231" height="255" viewBox="0 0 231 255" fill="none" xmlns="http://www.w3.org/2000/svg">
<path d="M192.959 121.767L231 159.443V1.63812H24.8091C8.04918 2.94861 1.28641 16.7452 1.52588e-05 23.4797V76.4454C15.0692 93.9186 45.759 129.411 47.9642 131.595C50.1695 133.779 57.7041 132.505 61.1957 131.595C66.0473 128.537 73.8759 130.321 77.1838 131.595L130.661 197.666V203.672L124.597 200.942L85.4535 156.713C79.7198 153.218 80.1241 157.077 81.043 159.443L122.943 205.857L124.597 212.409L118.532 210.225L75.5298 164.904C69.7962 161.846 70.2005 166.178 71.1193 168.726L113.019 214.047L114.673 220.6L108.057 218.415L65.6062 174.732C60.3136 172.111 60.4606 175.824 61.1957 178.009L105.852 221.692V226.606H100.339C81.5943 209.679 43.1127 174.405 39.1432 168.726C34.1814 161.627 36.938 157.805 39.1432 151.253C40.9074 146.011 39.8783 141.06 39.1432 139.24L1.52588e-05 99.9251V255H209.499C224.053 251.942 229.897 239.165 231 233.158V178.009L183.587 126.681C161.094 132.797 137.461 115.032 128.456 105.385C122.024 98.651 108.939 80.1585 108.057 60.0642C107.175 39.97 124.229 37.8587 132.866 39.3148C189.762 51.9829 196.635 99.561 192.959 121.767Z" fill="#FF0000"/>
</svg>
